<mxfile host="app.diagrams.net" modified="2024-04-13T20:25:00.152Z" agent="Mozilla/5.0 (Windows NT 10.0; Win64; x64) AppleWebKit/537.36 (KHTML, like Gecko) Chrome/123.0.0.0 Safari/537.36" version="24.2.5" etag="UhP2c2VIbDyVtMlDAykQ" type="github">
  <diagram name="Page-1" id="N72y0Vse_iqHpyWtJnBd">
    <mxGraphModel>
      <root>
        <mxCell id="0" />
        <mxCell id="1" parent="0" />
      </root>
    </mxGraphModel>
  </diagram>
</mxfile>
